<svg xmlns="http://www.w3.org/2000/svg" width="24" height="24" fill="none"><g filter="url(#a)"><circle cx="12" cy="12" r="12" fill="url(#b)"/></g><path stroke="#fff" stroke-linecap="round" stroke-opacity=".6" stroke-width=".398" d="M12 3.364v-1.8m0 19.072v1.8M9.045 3.885 8.84 3.32l-.205-.563-.205-.564m6.523 17.921.41 1.128.205.563m-9.12-16.42-.386-.46-.385-.46-.386-.459m12.259 14.61.771.919.385.46M4.52 7.682l-.52-.3-.52-.3-.52-.3m16.517 9.536 1.04.6.519.3M3.495 10.5l-.591-.103-.59-.104-.591-.105M20.504 13.5l1.182.208.59.104M3.495 13.5l-.591.104-.59.105-.591.104M20.504 10.5l1.182-.208.59-.104M4.521 16.319l-.52.3-.519.3-.52.3M19.48 7.681l1.04-.6.519-.3M6.45 18.616l-.386.46-.386.46-.385.459m12.259-14.61.771-.919.386-.46m-9.662 16.11-.205.564-.205.563-.205.564m6.522-17.922.41-1.127.206-.563m-5.382-.472.052.295m3.572 20.259-.052-.296M6.781 2.963l.15.26m10.286 17.815-.15-.26M4.006 5.292l.23.193m15.758 13.223-.23-.193M2.195 8.431l.282.103m19.33 7.035-.281-.102M1.564 12h.3m20.571 0h-.3m-19.94 3.57.282-.103m19.33-7.036-.281.103M4.006 18.708l.23-.193M19.994 5.293l-.23.192M6.783 21.038l.15-.26M17.22 2.963l-.15.26m-6.88 19.054.052-.295m3.572-20.259-.052.296"/><path fill="#fff" d="M12.233 22.363a.26.26 0 0 1-.47 0l-4.773-9.93a1 1 0 0 1 0-.866l4.774-9.93a.26.26 0 0 1 .47 0l4.774 9.93a1 1 0 0 1 0 .866z"/><path fill="url(#c)" d="M12.233 22.363a.26.26 0 0 1-.47 0l-4.773-9.93a1 1 0 0 1 0-.866l4.774-9.93a.26.26 0 0 1 .47 0l4.774 9.93a1 1 0 0 1 0 .866z"/><defs><linearGradient id="b" x1="12" x2="12" y1="0" y2="24" gradientUnits="userSpaceOnUse"><stop offset=".202" stop-color="#2E2E2E"/><stop offset="1" stop-opacity=".5"/></linearGradient><linearGradient id="c" x1="11.998" x2="11.998" y1="1.489" y2="22.511" gradientUnits="userSpaceOnUse"><stop offset=".159" stop-color="#14F590"/><stop offset=".558" stop-color="#0FCCD8" stop-opacity=".2"/><stop offset=".736" stop-color="#1DCAD5" stop-opacity="0"/></linearGradient><filter id="a" width="24" height="25.357" x="0" y="-.522" color-interpolation-filters="sRGB" filterUnits="userSpaceOnUse"><feFlood flood-opacity="0" result="BackgroundImageFix"/><feBlend in="SourceGraphic" in2="BackgroundImageFix" result="shape"/><feColorMatrix in="SourceAlpha" result="hardAlpha" values="0 0 0 0 0 0 0 0 0 0 0 0 0 0 0 0 0 0 127 0"/><feOffset dy="-.522"/><feGaussianBlur stdDeviation=".313"/><feComposite in2="hardAlpha" k2="-1" k3="1" operator="arithmetic"/><feColorMatrix values="0 0 0 0 1 0 0 0 0 1 0 0 0 0 1 0 0 0 0.15 0"/><feBlend in2="shape" result="effect1_innerShadow_486_2811"/><feColorMatrix in="SourceAlpha" result="hardAlpha" values="0 0 0 0 0 0 0 0 0 0 0 0 0 0 0 0 0 0 127 0"/><feOffset dy="1.252"/><feGaussianBlur stdDeviation=".417"/><feComposite in2="hardAlpha" k2="-1" k3="1" operator="arithmetic"/><feColorMatrix values="0 0 0 0 1 0 0 0 0 1 0 0 0 0 1 0 0 0 0.2 0"/><feBlend in2="effect1_innerShadow_486_2811" result="effect2_innerShadow_486_2811"/><feColorMatrix in="SourceAlpha" result="hardAlpha" values="0 0 0 0 0 0 0 0 0 0 0 0 0 0 0 0 0 0 127 0"/><feOffset dy=".417"/><feComposite in2="hardAlpha" k2="-1" k3="1" operator="arithmetic"/><feColorMatrix values="0 0 0 0 1 0 0 0 0 1 0 0 0 0 1 0 0 0 0.4 0"/><feBlend in2="effect2_innerShadow_486_2811" result="effect3_innerShadow_486_2811"/></filter></defs></svg>